<mxfile host="app.diagrams.net" modified="2024-04-28T05:21:23.941Z" agent="Mozilla/5.0 (Windows NT 10.0; Win64; x64) AppleWebKit/537.36 (KHTML, like Gecko) Chrome/124.0.0.0 Safari/537.36" etag="3SyS86C3XAM65G98zcBQ" version="24.3.1" type="device">
  <diagram name="Página-1" id="RXc2RLLWSJeJABgzcuFo">
    <mxGraphModel dx="2150" dy="757" grid="1" gridSize="10" guides="1" tooltips="1" connect="1" arrows="1" fold="1" page="1" pageScale="1" pageWidth="827" pageHeight="1169" math="0" shadow="0">
      <root>
        <mxCell id="0" />
        <mxCell id="1" parent="0" />
        <mxCell id="RIBPLgs2tIToHIS9_J1g-52" value="" style="rounded=0;whiteSpace=wrap;html=1;" parent="1" vertex="1">
          <mxGeometry x="-280" y="60" width="1180" height="940" as="geometry" />
        </mxCell>
        <mxCell id="BTqJfUpLhKWyFMrB6gHA-2" value="Controllers" style="swimlane;whiteSpace=wrap;html=1;" parent="1" vertex="1">
          <mxGeometry x="294" y="209" width="156" height="160" as="geometry" />
        </mxCell>
        <mxCell id="BTqJfUpLhKWyFMrB6gHA-15" value="Usuários" style="swimlane;fontStyle=0;childLayout=stackLayout;horizontal=1;startSize=30;horizontalStack=0;resizeParent=1;resizeParentMax=0;resizeLast=0;collapsible=1;marginBottom=0;whiteSpace=wrap;html=1;" parent="BTqJfUpLhKWyFMrB6gHA-2" vertex="1">
          <mxGeometry x="8" y="30" width="140" height="120" as="geometry" />
        </mxCell>
        <mxCell id="BTqJfUpLhKWyFMrB6gHA-16" value="Listar" style="text;strokeColor=none;fillColor=none;align=left;verticalAlign=middle;spacingLeft=4;spacingRight=4;overflow=hidden;points=[[0,0.5],[1,0.5]];portConstraint=eastwest;rotatable=0;whiteSpace=wrap;html=1;" parent="BTqJfUpLhKWyFMrB6gHA-15" vertex="1">
          <mxGeometry y="30" width="140" height="30" as="geometry" />
        </mxCell>
        <mxCell id="BTqJfUpLhKWyFMrB6gHA-17" value="Gravar" style="text;strokeColor=none;fillColor=none;align=left;verticalAlign=middle;spacingLeft=4;spacingRight=4;overflow=hidden;points=[[0,0.5],[1,0.5]];portConstraint=eastwest;rotatable=0;whiteSpace=wrap;html=1;" parent="BTqJfUpLhKWyFMrB6gHA-15" vertex="1">
          <mxGeometry y="60" width="140" height="30" as="geometry" />
        </mxCell>
        <mxCell id="BTqJfUpLhKWyFMrB6gHA-19" value="Check Role" style="text;strokeColor=none;fillColor=none;align=left;verticalAlign=middle;spacingLeft=4;spacingRight=4;overflow=hidden;points=[[0,0.5],[1,0.5]];portConstraint=eastwest;rotatable=0;whiteSpace=wrap;html=1;" parent="BTqJfUpLhKWyFMrB6gHA-15" vertex="1">
          <mxGeometry y="90" width="140" height="30" as="geometry" />
        </mxCell>
        <mxCell id="hS94APiRYJcV7AtxvvTG-5" style="edgeStyle=orthogonalEdgeStyle;rounded=0;orthogonalLoop=1;jettySize=auto;html=1;entryX=1;entryY=0.5;entryDx=0;entryDy=0;" parent="BTqJfUpLhKWyFMrB6gHA-2" target="qTvQ86xbKATVmVGrnASA-21" edge="1">
          <mxGeometry relative="1" as="geometry">
            <mxPoint x="-44" y="121" as="targetPoint" />
            <mxPoint y="120" as="sourcePoint" />
            <Array as="points">
              <mxPoint y="101" />
              <mxPoint x="-24" y="101" />
              <mxPoint x="-24" y="469" />
            </Array>
          </mxGeometry>
        </mxCell>
        <mxCell id="BTqJfUpLhKWyFMrB6gHA-5" value="Models" style="swimlane;whiteSpace=wrap;html=1;startSize=23;" parent="1" vertex="1">
          <mxGeometry x="490" y="209" width="190" height="231" as="geometry" />
        </mxCell>
        <mxCell id="RIBPLgs2tIToHIS9_J1g-12" value="Servidor Banco de Dados" style="swimlane;whiteSpace=wrap;html=1;" parent="1" vertex="1">
          <mxGeometry x="710" y="99" width="160" height="291" as="geometry" />
        </mxCell>
        <mxCell id="RIBPLgs2tIToHIS9_J1g-16" value="" style="image;aspect=fixed;html=1;points=[];align=center;fontSize=12;image=img/lib/azure2/databases/Azure_Database_PostgreSQL_Server.svg;" parent="RIBPLgs2tIToHIS9_J1g-12" vertex="1">
          <mxGeometry x="72" y="176" width="48" height="64" as="geometry" />
        </mxCell>
        <mxCell id="RIBPLgs2tIToHIS9_J1g-32" value="Render" style="image;points=[];aspect=fixed;html=1;align=center;shadow=0;dashed=0;image=img/lib/allied_telesis/storage/Datacenter_Server_Half_Rack_ToR.svg;" parent="RIBPLgs2tIToHIS9_J1g-12" vertex="1">
          <mxGeometry x="56" y="40" width="38.2" height="49.63" as="geometry" />
        </mxCell>
        <mxCell id="RIBPLgs2tIToHIS9_J1g-19" style="edgeStyle=orthogonalEdgeStyle;rounded=0;orthogonalLoop=1;jettySize=auto;html=1;exitX=1;exitY=0.75;exitDx=0;exitDy=0;startArrow=block;startFill=1;" parent="RIBPLgs2tIToHIS9_J1g-12" edge="1">
          <mxGeometry relative="1" as="geometry">
            <mxPoint x="70" y="221" as="targetPoint" />
            <mxPoint x="-49.97000000000003" y="221" as="sourcePoint" />
            <Array as="points">
              <mxPoint x="70" y="221" />
            </Array>
          </mxGeometry>
        </mxCell>
        <mxCell id="RIBPLgs2tIToHIS9_J1g-23" value="Usuário" style="sketch=0;outlineConnect=0;fontColor=#232F3E;gradientColor=none;fillColor=#232F3D;strokeColor=none;dashed=0;verticalLabelPosition=bottom;verticalAlign=top;align=center;html=1;fontSize=12;fontStyle=0;aspect=fixed;pointerEvents=1;shape=mxgraph.aws4.user;" parent="1" vertex="1">
          <mxGeometry x="-152.81" y="169" width="65.62" height="65.62" as="geometry" />
        </mxCell>
        <mxCell id="RIBPLgs2tIToHIS9_J1g-27" value="Servidor" style="swimlane;whiteSpace=wrap;html=1;" parent="1" vertex="1">
          <mxGeometry x="30" y="99" width="670" height="861" as="geometry" />
        </mxCell>
        <mxCell id="RIBPLgs2tIToHIS9_J1g-25" value="Render" style="image;points=[];aspect=fixed;html=1;align=center;shadow=0;dashed=0;image=img/lib/allied_telesis/storage/Datacenter_Server_Half_Rack_ToR.svg;" parent="RIBPLgs2tIToHIS9_J1g-27" vertex="1">
          <mxGeometry x="330.9" y="25.990000000000002" width="38.2" height="49.63" as="geometry" />
        </mxCell>
        <mxCell id="RIBPLgs2tIToHIS9_J1g-24" value="Views" style="swimlane;whiteSpace=wrap;html=1;startSize=23;" parent="RIBPLgs2tIToHIS9_J1g-27" vertex="1">
          <mxGeometry x="40" y="110" width="160" height="710" as="geometry" />
        </mxCell>
        <mxCell id="RIBPLgs2tIToHIS9_J1g-41" value="Tela Inicial" style="swimlane;fontStyle=0;childLayout=stackLayout;horizontal=1;startSize=30;horizontalStack=0;resizeParent=1;resizeParentMax=0;resizeLast=0;collapsible=1;marginBottom=0;whiteSpace=wrap;html=1;" parent="RIBPLgs2tIToHIS9_J1g-24" vertex="1">
          <mxGeometry x="15" y="38" width="130" height="150" as="geometry" />
        </mxCell>
        <mxCell id="RIBPLgs2tIToHIS9_J1g-42" value="Navbar" style="text;strokeColor=none;fillColor=none;align=left;verticalAlign=middle;spacingLeft=4;spacingRight=4;overflow=hidden;points=[[0,0.5],[1,0.5]];portConstraint=eastwest;rotatable=0;whiteSpace=wrap;html=1;" parent="RIBPLgs2tIToHIS9_J1g-41" vertex="1">
          <mxGeometry y="30" width="130" height="30" as="geometry" />
        </mxCell>
        <mxCell id="RIBPLgs2tIToHIS9_J1g-43" value="Imagem" style="text;strokeColor=none;fillColor=none;align=left;verticalAlign=middle;spacingLeft=4;spacingRight=4;overflow=hidden;points=[[0,0.5],[1,0.5]];portConstraint=eastwest;rotatable=0;whiteSpace=wrap;html=1;" parent="RIBPLgs2tIToHIS9_J1g-41" vertex="1">
          <mxGeometry y="60" width="130" height="30" as="geometry" />
        </mxCell>
        <mxCell id="RIBPLgs2tIToHIS9_J1g-44" value="&lt;font color=&quot;#ffffff&quot;&gt;Botão&lt;/font&gt;" style="text;strokeColor=none;fillColor=none;align=left;verticalAlign=middle;spacingLeft=4;spacingRight=4;overflow=hidden;points=[[0,0.5],[1,0.5]];portConstraint=eastwest;rotatable=0;whiteSpace=wrap;html=1;" parent="RIBPLgs2tIToHIS9_J1g-41" vertex="1">
          <mxGeometry y="90" width="130" height="60" as="geometry" />
        </mxCell>
        <mxCell id="qTvQ86xbKATVmVGrnASA-3" value="Botão" style="text;html=1;align=center;verticalAlign=middle;whiteSpace=wrap;rounded=0;" parent="RIBPLgs2tIToHIS9_J1g-24" vertex="1">
          <mxGeometry x="7" y="157" width="60" height="30" as="geometry" />
        </mxCell>
        <mxCell id="qTvQ86xbKATVmVGrnASA-5" value="Texto" style="text;html=1;align=center;verticalAlign=middle;whiteSpace=wrap;rounded=0;" parent="RIBPLgs2tIToHIS9_J1g-24" vertex="1">
          <mxGeometry x="5" y="128" width="60" height="30" as="geometry" />
        </mxCell>
        <mxCell id="hS94APiRYJcV7AtxvvTG-10" style="edgeStyle=orthogonalEdgeStyle;rounded=0;orthogonalLoop=1;jettySize=auto;html=1;endArrow=none;endFill=0;" parent="RIBPLgs2tIToHIS9_J1g-27" edge="1">
          <mxGeometry relative="1" as="geometry">
            <mxPoint x="440" y="231" as="targetPoint" />
            <mxPoint x="489.96000000000004" y="640" as="sourcePoint" />
            <Array as="points">
              <mxPoint x="490" y="611" />
              <mxPoint x="440" y="611" />
              <mxPoint x="440" y="363" />
            </Array>
          </mxGeometry>
        </mxCell>
        <mxCell id="RIBPLgs2tIToHIS9_J1g-49" style="edgeStyle=orthogonalEdgeStyle;rounded=0;orthogonalLoop=1;jettySize=auto;html=1;entryX=0;entryY=0.5;entryDx=0;entryDy=0;dashed=1;" parent="1" source="RIBPLgs2tIToHIS9_J1g-48" target="RIBPLgs2tIToHIS9_J1g-24" edge="1">
          <mxGeometry relative="1" as="geometry" />
        </mxCell>
        <mxCell id="RIBPLgs2tIToHIS9_J1g-48" value="" style="shape=image;html=1;verticalAlign=top;verticalLabelPosition=bottom;labelBackgroundColor=#ffffff;imageAspect=0;aspect=fixed;image=https://cdn2.iconfinder.com/data/icons/social-media-and-payment/64/-36-128.png" parent="1" vertex="1">
          <mxGeometry x="-170" y="345" width="88" height="88" as="geometry" />
        </mxCell>
        <mxCell id="RIBPLgs2tIToHIS9_J1g-50" style="edgeStyle=orthogonalEdgeStyle;rounded=0;orthogonalLoop=1;jettySize=auto;html=1;entryX=1;entryY=0.5;entryDx=0;entryDy=0;dashed=1;" parent="1" source="RIBPLgs2tIToHIS9_J1g-24" target="RIBPLgs2tIToHIS9_J1g-48" edge="1">
          <mxGeometry relative="1" as="geometry" />
        </mxCell>
        <mxCell id="RIBPLgs2tIToHIS9_J1g-51" value="Cliente" style="swimlane;horizontal=0;whiteSpace=wrap;html=1;" parent="1" vertex="1">
          <mxGeometry x="-220" y="289" width="200" height="200" as="geometry" />
        </mxCell>
        <mxCell id="Phphtxd2D6d0RNNB2ZdB-5" value="Services" style="swimlane;whiteSpace=wrap;html=1;" parent="1" vertex="1">
          <mxGeometry x="490" y="478" width="200" height="340" as="geometry" />
        </mxCell>
        <mxCell id="Phphtxd2D6d0RNNB2ZdB-6" value="Login" style="swimlane;fontStyle=0;childLayout=stackLayout;horizontal=1;startSize=30;horizontalStack=0;resizeParent=1;resizeParentMax=0;resizeLast=0;collapsible=1;marginBottom=0;whiteSpace=wrap;html=1;" parent="Phphtxd2D6d0RNNB2ZdB-5" vertex="1">
          <mxGeometry x="30" y="40" width="140" height="120" as="geometry" />
        </mxCell>
        <mxCell id="Phphtxd2D6d0RNNB2ZdB-7" value="Verificar Senha&amp;nbsp;" style="text;strokeColor=none;fillColor=none;align=left;verticalAlign=middle;spacingLeft=4;spacingRight=4;overflow=hidden;points=[[0,0.5],[1,0.5]];portConstraint=eastwest;rotatable=0;whiteSpace=wrap;html=1;" parent="Phphtxd2D6d0RNNB2ZdB-6" vertex="1">
          <mxGeometry y="30" width="140" height="30" as="geometry" />
        </mxCell>
        <mxCell id="Phphtxd2D6d0RNNB2ZdB-8" value="Verificar E-mail&amp;nbsp;" style="text;strokeColor=none;fillColor=none;align=left;verticalAlign=middle;spacingLeft=4;spacingRight=4;overflow=hidden;points=[[0,0.5],[1,0.5]];portConstraint=eastwest;rotatable=0;whiteSpace=wrap;html=1;" parent="Phphtxd2D6d0RNNB2ZdB-6" vertex="1">
          <mxGeometry y="60" width="140" height="30" as="geometry" />
        </mxCell>
        <mxCell id="Phphtxd2D6d0RNNB2ZdB-9" value="Verificar ID" style="text;strokeColor=none;fillColor=none;align=left;verticalAlign=middle;spacingLeft=4;spacingRight=4;overflow=hidden;points=[[0,0.5],[1,0.5]];portConstraint=eastwest;rotatable=0;whiteSpace=wrap;html=1;" parent="Phphtxd2D6d0RNNB2ZdB-6" vertex="1">
          <mxGeometry y="90" width="140" height="30" as="geometry" />
        </mxCell>
        <mxCell id="hS94APiRYJcV7AtxvvTG-9" style="edgeStyle=orthogonalEdgeStyle;rounded=0;orthogonalLoop=1;jettySize=auto;html=1;endArrow=none;endFill=0;" parent="Phphtxd2D6d0RNNB2ZdB-5" edge="1">
          <mxGeometry relative="1" as="geometry">
            <mxPoint y="-148" as="targetPoint" />
            <mxPoint x="29.95999999999998" y="128.99999999999994" as="sourcePoint" />
            <Array as="points">
              <mxPoint x="30" y="100" />
              <mxPoint x="-20" y="100" />
              <mxPoint x="-20" y="-148" />
            </Array>
          </mxGeometry>
        </mxCell>
        <mxCell id="qTvQ86xbKATVmVGrnASA-11" value="Quem Somos?" style="swimlane;fontStyle=0;childLayout=stackLayout;horizontal=1;startSize=30;horizontalStack=0;resizeParent=1;resizeParentMax=0;resizeLast=0;collapsible=1;marginBottom=0;whiteSpace=wrap;html=1;" parent="1" vertex="1">
          <mxGeometry x="86" y="409" width="130" height="120" as="geometry" />
        </mxCell>
        <mxCell id="qTvQ86xbKATVmVGrnASA-12" value="Navbar" style="text;strokeColor=none;fillColor=none;align=left;verticalAlign=middle;spacingLeft=4;spacingRight=4;overflow=hidden;points=[[0,0.5],[1,0.5]];portConstraint=eastwest;rotatable=0;whiteSpace=wrap;html=1;" parent="qTvQ86xbKATVmVGrnASA-11" vertex="1">
          <mxGeometry y="30" width="130" height="30" as="geometry" />
        </mxCell>
        <mxCell id="qTvQ86xbKATVmVGrnASA-13" value="Imagem" style="text;strokeColor=none;fillColor=none;align=left;verticalAlign=middle;spacingLeft=4;spacingRight=4;overflow=hidden;points=[[0,0.5],[1,0.5]];portConstraint=eastwest;rotatable=0;whiteSpace=wrap;html=1;" parent="qTvQ86xbKATVmVGrnASA-11" vertex="1">
          <mxGeometry y="60" width="130" height="30" as="geometry" />
        </mxCell>
        <mxCell id="qTvQ86xbKATVmVGrnASA-15" value="Texto" style="text;strokeColor=none;fillColor=none;align=left;verticalAlign=middle;spacingLeft=4;spacingRight=4;overflow=hidden;points=[[0,0.5],[1,0.5]];portConstraint=eastwest;rotatable=0;whiteSpace=wrap;html=1;" parent="qTvQ86xbKATVmVGrnASA-11" vertex="1">
          <mxGeometry y="90" width="130" height="30" as="geometry" />
        </mxCell>
        <mxCell id="qTvQ86xbKATVmVGrnASA-14" value="&lt;font color=&quot;#ffffff&quot;&gt;Botão&lt;/font&gt;" style="text;strokeColor=none;fillColor=none;align=left;verticalAlign=middle;spacingLeft=4;spacingRight=4;overflow=hidden;points=[[0,0.5],[1,0.5]];portConstraint=eastwest;rotatable=0;whiteSpace=wrap;html=1;" parent="qTvQ86xbKATVmVGrnASA-11" vertex="1">
          <mxGeometry y="120" width="130" as="geometry" />
        </mxCell>
        <mxCell id="qTvQ86xbKATVmVGrnASA-16" value="Login&amp;nbsp;" style="swimlane;fontStyle=0;childLayout=stackLayout;horizontal=1;startSize=30;horizontalStack=0;resizeParent=1;resizeParentMax=0;resizeLast=0;collapsible=1;marginBottom=0;whiteSpace=wrap;html=1;" parent="1" vertex="1">
          <mxGeometry x="86" y="543" width="130" height="170" as="geometry" />
        </mxCell>
        <mxCell id="qTvQ86xbKATVmVGrnASA-17" value="Formulário" style="text;strokeColor=none;fillColor=none;align=left;verticalAlign=middle;spacingLeft=4;spacingRight=4;overflow=hidden;points=[[0,0.5],[1,0.5]];portConstraint=eastwest;rotatable=0;whiteSpace=wrap;html=1;" parent="qTvQ86xbKATVmVGrnASA-16" vertex="1">
          <mxGeometry y="30" width="130" height="30" as="geometry" />
        </mxCell>
        <mxCell id="qTvQ86xbKATVmVGrnASA-18" value="Imagem" style="text;strokeColor=none;fillColor=none;align=left;verticalAlign=middle;spacingLeft=4;spacingRight=4;overflow=hidden;points=[[0,0.5],[1,0.5]];portConstraint=eastwest;rotatable=0;whiteSpace=wrap;html=1;" parent="qTvQ86xbKATVmVGrnASA-16" vertex="1">
          <mxGeometry y="60" width="130" height="30" as="geometry" />
        </mxCell>
        <mxCell id="qTvQ86xbKATVmVGrnASA-19" value="Texto" style="text;strokeColor=none;fillColor=none;align=left;verticalAlign=middle;spacingLeft=4;spacingRight=4;overflow=hidden;points=[[0,0.5],[1,0.5]];portConstraint=eastwest;rotatable=0;whiteSpace=wrap;html=1;" parent="qTvQ86xbKATVmVGrnASA-16" vertex="1">
          <mxGeometry y="90" width="130" height="30" as="geometry" />
        </mxCell>
        <mxCell id="qTvQ86xbKATVmVGrnASA-21" value="Link para Cadastrar" style="text;strokeColor=none;fillColor=none;align=left;verticalAlign=middle;spacingLeft=4;spacingRight=4;overflow=hidden;points=[[0,0.5],[1,0.5]];portConstraint=eastwest;rotatable=0;whiteSpace=wrap;html=1;" parent="qTvQ86xbKATVmVGrnASA-16" vertex="1">
          <mxGeometry y="120" width="130" height="30" as="geometry" />
        </mxCell>
        <mxCell id="qTvQ86xbKATVmVGrnASA-20" value="&lt;font color=&quot;#ffffff&quot;&gt;Botão&lt;/font&gt;" style="text;strokeColor=none;fillColor=none;align=left;verticalAlign=middle;spacingLeft=4;spacingRight=4;overflow=hidden;points=[[0,0.5],[1,0.5]];portConstraint=eastwest;rotatable=0;whiteSpace=wrap;html=1;" parent="qTvQ86xbKATVmVGrnASA-16" vertex="1">
          <mxGeometry y="150" width="130" height="20" as="geometry" />
        </mxCell>
        <mxCell id="qTvQ86xbKATVmVGrnASA-22" value="Botão" style="text;strokeColor=none;fillColor=none;align=left;verticalAlign=middle;spacingLeft=4;spacingRight=4;overflow=hidden;points=[[0,0.5],[1,0.5]];portConstraint=eastwest;rotatable=0;whiteSpace=wrap;html=1;" parent="1" vertex="1">
          <mxGeometry x="86" y="691" width="130" height="30" as="geometry" />
        </mxCell>
        <mxCell id="qTvQ86xbKATVmVGrnASA-23" value="Registro" style="swimlane;fontStyle=0;childLayout=stackLayout;horizontal=1;startSize=30;horizontalStack=0;resizeParent=1;resizeParentMax=0;resizeLast=0;collapsible=1;marginBottom=0;whiteSpace=wrap;html=1;" parent="1" vertex="1">
          <mxGeometry x="85" y="731" width="130" height="150" as="geometry" />
        </mxCell>
        <mxCell id="qTvQ86xbKATVmVGrnASA-24" value="Formulário" style="text;strokeColor=none;fillColor=none;align=left;verticalAlign=middle;spacingLeft=4;spacingRight=4;overflow=hidden;points=[[0,0.5],[1,0.5]];portConstraint=eastwest;rotatable=0;whiteSpace=wrap;html=1;" parent="qTvQ86xbKATVmVGrnASA-23" vertex="1">
          <mxGeometry y="30" width="130" height="30" as="geometry" />
        </mxCell>
        <mxCell id="qTvQ86xbKATVmVGrnASA-25" value="Imagem" style="text;strokeColor=none;fillColor=none;align=left;verticalAlign=middle;spacingLeft=4;spacingRight=4;overflow=hidden;points=[[0,0.5],[1,0.5]];portConstraint=eastwest;rotatable=0;whiteSpace=wrap;html=1;" parent="qTvQ86xbKATVmVGrnASA-23" vertex="1">
          <mxGeometry y="60" width="130" height="30" as="geometry" />
        </mxCell>
        <mxCell id="qTvQ86xbKATVmVGrnASA-26" value="Texto" style="text;strokeColor=none;fillColor=none;align=left;verticalAlign=middle;spacingLeft=4;spacingRight=4;overflow=hidden;points=[[0,0.5],[1,0.5]];portConstraint=eastwest;rotatable=0;whiteSpace=wrap;html=1;" parent="qTvQ86xbKATVmVGrnASA-23" vertex="1">
          <mxGeometry y="90" width="130" height="30" as="geometry" />
        </mxCell>
        <mxCell id="qTvQ86xbKATVmVGrnASA-29" value="Botão" style="text;strokeColor=none;fillColor=none;align=left;verticalAlign=middle;spacingLeft=4;spacingRight=4;overflow=hidden;points=[[0,0.5],[1,0.5]];portConstraint=eastwest;rotatable=0;whiteSpace=wrap;html=1;" parent="qTvQ86xbKATVmVGrnASA-23" vertex="1">
          <mxGeometry y="120" width="130" height="30" as="geometry" />
        </mxCell>
        <mxCell id="qTvQ86xbKATVmVGrnASA-28" value="&lt;font color=&quot;#ffffff&quot;&gt;Botão&lt;/font&gt;" style="text;strokeColor=none;fillColor=none;align=left;verticalAlign=middle;spacingLeft=4;spacingRight=4;overflow=hidden;points=[[0,0.5],[1,0.5]];portConstraint=eastwest;rotatable=0;whiteSpace=wrap;html=1;" parent="qTvQ86xbKATVmVGrnASA-23" vertex="1">
          <mxGeometry y="150" width="130" as="geometry" />
        </mxCell>
        <mxCell id="qTvQ86xbKATVmVGrnASA-34" value="Usuários" style="swimlane;fontStyle=0;childLayout=stackLayout;horizontal=1;startSize=30;horizontalStack=0;resizeParent=1;resizeParentMax=0;resizeLast=0;collapsible=1;marginBottom=0;whiteSpace=wrap;html=1;" parent="1" vertex="1">
          <mxGeometry x="509.5" y="249" width="150" height="180" as="geometry" />
        </mxCell>
        <mxCell id="qTvQ86xbKATVmVGrnASA-35" value="Id" style="text;strokeColor=none;fillColor=none;align=left;verticalAlign=middle;spacingLeft=4;spacingRight=4;overflow=hidden;points=[[0,0.5],[1,0.5]];portConstraint=eastwest;rotatable=0;whiteSpace=wrap;html=1;" parent="qTvQ86xbKATVmVGrnASA-34" vertex="1">
          <mxGeometry y="30" width="150" height="30" as="geometry" />
        </mxCell>
        <mxCell id="qTvQ86xbKATVmVGrnASA-36" value="&amp;nbsp;E-mail" style="text;html=1;align=left;verticalAlign=middle;whiteSpace=wrap;rounded=0;" parent="qTvQ86xbKATVmVGrnASA-34" vertex="1">
          <mxGeometry y="60" width="150" height="20" as="geometry" />
        </mxCell>
        <mxCell id="qTvQ86xbKATVmVGrnASA-37" value="&lt;div&gt;&lt;/div&gt;" style="text;strokeColor=none;fillColor=none;align=left;verticalAlign=middle;spacingLeft=4;spacingRight=4;overflow=hidden;points=[[0,0.5],[1,0.5]];portConstraint=eastwest;rotatable=0;whiteSpace=wrap;html=1;" parent="qTvQ86xbKATVmVGrnASA-34" vertex="1">
          <mxGeometry y="80" width="150" height="100" as="geometry" />
        </mxCell>
        <mxCell id="qTvQ86xbKATVmVGrnASA-38" value="Senha" style="text;html=1;align=left;verticalAlign=middle;whiteSpace=wrap;rounded=0;" parent="1" vertex="1">
          <mxGeometry x="509.5" y="333" width="150" height="20" as="geometry" />
        </mxCell>
        <mxCell id="qTvQ86xbKATVmVGrnASA-39" value="Nome" style="text;html=1;align=left;verticalAlign=middle;whiteSpace=wrap;rounded=0;" parent="1" vertex="1">
          <mxGeometry x="510.5" y="357" width="150" height="20" as="geometry" />
        </mxCell>
        <mxCell id="qTvQ86xbKATVmVGrnASA-40" value="Localização" style="text;html=1;align=left;verticalAlign=middle;whiteSpace=wrap;rounded=0;" parent="1" vertex="1">
          <mxGeometry x="510.5" y="380" width="150" height="20" as="geometry" />
        </mxCell>
        <mxCell id="qTvQ86xbKATVmVGrnASA-46" value="Registro" style="swimlane;fontStyle=0;childLayout=stackLayout;horizontal=1;startSize=30;horizontalStack=0;resizeParent=1;resizeParentMax=0;resizeLast=0;collapsible=1;marginBottom=0;whiteSpace=wrap;html=1;" parent="1" vertex="1">
          <mxGeometry x="520" y="653" width="140" height="120" as="geometry" />
        </mxCell>
        <mxCell id="qTvQ86xbKATVmVGrnASA-47" value="Criar Senha" style="text;strokeColor=none;fillColor=none;align=left;verticalAlign=middle;spacingLeft=4;spacingRight=4;overflow=hidden;points=[[0,0.5],[1,0.5]];portConstraint=eastwest;rotatable=0;whiteSpace=wrap;html=1;" parent="qTvQ86xbKATVmVGrnASA-46" vertex="1">
          <mxGeometry y="30" width="140" height="30" as="geometry" />
        </mxCell>
        <mxCell id="qTvQ86xbKATVmVGrnASA-48" value="Criar Usuário" style="text;strokeColor=none;fillColor=none;align=left;verticalAlign=middle;spacingLeft=4;spacingRight=4;overflow=hidden;points=[[0,0.5],[1,0.5]];portConstraint=eastwest;rotatable=0;whiteSpace=wrap;html=1;" parent="qTvQ86xbKATVmVGrnASA-46" vertex="1">
          <mxGeometry y="60" width="140" height="30" as="geometry" />
        </mxCell>
        <mxCell id="qTvQ86xbKATVmVGrnASA-49" value="Criar ID" style="text;strokeColor=none;fillColor=none;align=left;verticalAlign=middle;spacingLeft=4;spacingRight=4;overflow=hidden;points=[[0,0.5],[1,0.5]];portConstraint=eastwest;rotatable=0;whiteSpace=wrap;html=1;" parent="qTvQ86xbKATVmVGrnASA-46" vertex="1">
          <mxGeometry y="90" width="140" height="30" as="geometry" />
        </mxCell>
        <mxCell id="hS94APiRYJcV7AtxvvTG-1" style="edgeStyle=orthogonalEdgeStyle;rounded=0;orthogonalLoop=1;jettySize=auto;html=1;entryX=1;entryY=0.75;entryDx=0;entryDy=0;startArrow=block;startFill=1;endArrow=block;endFill=1;" parent="1" edge="1">
          <mxGeometry relative="1" as="geometry">
            <mxPoint x="450" y="329.99999999999994" as="targetPoint" />
            <mxPoint x="510" y="330" as="sourcePoint" />
            <Array as="points">
              <mxPoint x="510" y="330" />
            </Array>
          </mxGeometry>
        </mxCell>
        <mxCell id="hS94APiRYJcV7AtxvvTG-6" style="edgeStyle=orthogonalEdgeStyle;rounded=0;orthogonalLoop=1;jettySize=auto;html=1;entryX=1;entryY=0.5;entryDx=0;entryDy=0;startArrow=block;startFill=1;" parent="1" edge="1">
          <mxGeometry relative="1" as="geometry">
            <mxPoint x="218.99999999999977" y="836" as="targetPoint" />
            <mxPoint x="294" y="310" as="sourcePoint" />
            <Array as="points">
              <mxPoint x="270" y="310" />
              <mxPoint x="270" y="836" />
            </Array>
          </mxGeometry>
        </mxCell>
        <mxCell id="hS94APiRYJcV7AtxvvTG-8" value="Role" style="text;html=1;align=left;verticalAlign=middle;whiteSpace=wrap;rounded=0;" parent="1" vertex="1">
          <mxGeometry x="510.5" y="404" width="150" height="20" as="geometry" />
        </mxCell>
      </root>
    </mxGraphModel>
  </diagram>
</mxfile>
